<svg width="91" height="179" viewBox="0 0 91 179" fill="none"
     xmlns="http://www.w3.org/2000/svg">
    <path fill-rule="evenodd" clip-rule="evenodd"
          d="M91 0H0V179L45.5 136.089L91 179V0Z" fill="#3e1f47"/>
    <path d="M45 47C30.0915 47 18 59.3949 18 74.6826C18 86.9137 25.7355 97.29 36.4657 100.951C37.8135 101.207 38.25 100.349 38.25 99.6199V94.4664C30.7395 96.1412 29.1758 91.1998 29.1758 91.1998C27.9473 88.0002 26.1765 87.149 26.1765 87.149C23.7263 85.4303 26.3633 85.4672 26.3633 85.4672C29.0745 85.661 30.501 88.3208 30.501 88.3208C32.9085 92.5517 36.8168 91.329 38.358 90.6208C38.5988 88.833 39.2985 87.6103 40.0725 86.9206C34.0763 86.217 27.7717 83.8432 27.7717 73.2385C27.7717 70.2141 28.827 67.7458 30.5527 65.808C30.2737 65.109 29.349 62.2923 30.816 58.4813C30.816 58.4813 33.084 57.7385 38.2432 61.3188C40.3965 60.7052 42.705 60.3984 45 60.3868C47.295 60.3984 49.6057 60.7052 51.7635 61.3188C56.9182 57.7385 59.1817 58.4813 59.1817 58.4813C60.651 62.2946 59.7262 65.1113 59.4472 65.808C61.1797 67.7458 62.226 70.2164 62.226 73.2385C62.226 83.8709 55.9102 86.2124 49.8983 86.8975C50.8658 87.7557 51.75 89.4397 51.75 92.0234V99.6199C51.75 100.356 52.182 101.221 53.5522 100.949C64.2735 97.2831 72 86.909 72 74.6826C72 59.3949 59.9107 47 45 47Z"
          fill="white"/>
</svg>
