<svg width="100" height="100" viewBox="0 0 100 100" fill="none" xmlns="http://www.w3.org/2000/svg">
<path d="M100 100L0 0H100V100Z" fill="#3B3A39"/>
<path d="M71 11C61.061 11 53 19.0595 53 29C53 36.953 58.157 43.7 65.3105 46.0805C66.209 46.247 66.5 45.689 66.5 45.215V41.864C61.493 42.953 60.4505 39.74 60.4505 39.74C59.6315 37.6595 58.451 37.106 58.451 37.106C56.8175 35.9885 58.5755 36.0125 58.5755 36.0125C60.383 36.1385 61.334 37.868 61.334 37.868C62.939 40.619 65.5445 39.824 66.572 39.3635C66.7325 38.201 67.199 37.406 67.715 36.9575C63.7175 36.5 59.5145 34.9565 59.5145 28.061C59.5145 26.0945 60.218 24.4895 61.3685 23.2295C61.1825 22.775 60.566 20.9435 61.544 18.4655C61.544 18.4655 63.056 17.9825 66.4955 20.3105C67.931 19.9115 69.47 19.712 71 19.7045C72.53 19.712 74.0705 19.9115 75.509 20.3105C78.9455 17.9825 80.4545 18.4655 80.4545 18.4655C81.434 20.945 80.8175 22.7765 80.6315 23.2295C81.7865 24.4895 82.484 26.096 82.484 28.061C82.484 34.9745 78.2735 36.497 74.2655 36.9425C74.9105 37.5005 75.5 38.5955 75.5 40.2755V45.215C75.5 45.6935 75.788 46.256 76.7015 46.079C83.849 43.6955 89 36.95 89 29C89 19.0595 80.9405 11 71 11Z" fill="white"/>
</svg>
